<svg height="512" viewBox="0 0 60 60" width="512" xmlns="http://www.w3.org/2000/svg"><g id="Page-1" fill="none" fill-rule="evenodd"><g id="076---Daisy" fill-rule="nonzero" transform="translate(0 -1)"><g fill="#e8edfc"><path id="Shape" d="m34.41 6.4c-.0000216.18706768-.0100359.37400067-.03.56l-.68 5.42v.01l-.99 7.95c-.8857009-.2254753-1.7960497-.3396888-2.71-.34-.5289651-.0005871-1.0571911.0395314-1.58.12l-2.12-7.73v-.01l-.68-5.42c-.2031568-1.62744494.5131889-3.23327405 1.8599026-4.16933598s3.1015185-1.04785837 4.5561328-.29026557c1.4546143.75759279 2.3689521 2.25953308 2.3739646 3.89960155z"/><path id="Shape" d="m28.42 20.12c-1.4309228.1996065-2.8077287.6823384-4.05 1.42l-4.92-6.33v-.01l-.02-.03-2.68-4.71c-.6238781-1.09967512-.7456472-2.41426472-.3343745-3.60982484.4112726-1.19556012 1.3160071-2.15703248 2.4843745-2.64017516h.01c1.1678465-.48597774 2.4882528-.446459 3.6249451.10849179 1.1366923.5549508 1.9799638 1.57177308 2.3150549 2.79150821l1.45 5.27v.01z"/><path id="Shape" d="m24.37 21.54c-1.2407251.7431185-2.3243478 1.7214362-3.19 2.88l-6.97-3.97-.04-.02-4.27-3.33c-.99628333-.7782329-1.6114476-1.9459828-1.68983076-3.2077605-.07838317-1.2617777.38752512-2.4966851 1.27983076-3.3922395l.01-.01c.8955544-.89230564 2.1304618-1.35821393 3.3922395-1.27983076 1.2617777.07838316 2.4295276.69354743 3.2077605 1.68983076l3.33 4.27.02.03v.01z"/><path id="Shape" d="m21.18 24.42c-.8615246 1.1566502-1.4867606 2.4716845-1.84 3.87l-7.93-.99h-.02l-5.28-1.45c-1.21973513-.3350911-2.23655741-1.1783626-2.79150821-2.3150549-.55495079-1.1366923-.59446953-2.4570986-.10849179-3.6249451v-.01c.48314268-1.1683674 1.44461504-2.0731019 2.64017516-2.4843745 1.19556012-.4112727 2.51014972-.2895036 3.60982484.3343745l4.71 2.68.04.02z"/><path id="Shape" d="m19 31c-.0005871.5289651.0395314 1.0571911.12 1.58l-7.73 2.12h-.01l-5.42.68c-1.62744494.2031568-3.23327405-.5131889-4.16933598-1.8599026s-1.04785837-3.1015185-.29026557-4.5561328c.75759279-1.4546143 2.25953308-2.3689521 3.89960155-2.3739646.18706768.0000216.37400067.0100359.56.03l5.43.68h.02l7.93.99c-.2254753.8857009-.3396888 1.7960497-.34 2.71z"/><path id="Shape" d="m20.54 36.63-6.33 4.92-4.75 2.7c-1.09967512.6238781-2.41426472.7456472-3.60982484.3343745-1.19556012-.4112726-2.15703248-1.3160071-2.64017516-2.4843745v-.01c-.48597774-1.1678465-.446459-2.4882528.10849179-3.6249451.5549508-1.1366923 1.57177308-1.9799638 2.79150821-2.3150549l5.27-1.45h.01l7.73-2.12c.1996065 1.4309228.6823384 2.8077287 1.42 4.05z"/><path id="Shape" d="m23.42 39.82-3.97 6.97-.02.04-3.33 4.27c-.7782329.9962833-1.9459828 1.6114476-3.2077605 1.6898308-1.2617777.0783831-2.4966851-.3875252-3.3922395-1.2798308l-.01-.01c-.89230564-.8955544-1.35821393-2.1304618-1.27983076-3.3922395.07838316-1.2617777.69354743-2.4295276 1.68983076-3.2077605l4.31-3.35 6.33-4.92c.7431185 1.2407251 1.7214362 2.3243478 2.88 3.19z"/><path id="Shape" d="m27.29 41.66-.99 7.93v.02l-1.45 5.28c-.3350911 1.2197351-1.1783626 2.2365574-2.3150549 2.7915082s-2.4570986.5944695-3.6249451.1084918h-.01c-1.1683674-.4831427-2.0731019-1.444615-2.4843745-2.6401752-.4112727-1.1955601-.2895036-2.5101497.3343745-3.6098248l2.68-4.71.02-.04 3.97-6.97c1.1566502.8615246 2.4716845 1.4867606 3.87 1.84z"/><path id="Shape" d="m30 60c-1.1686842.0026561-2.2904122-.4597412-3.1177363-1.2851893-.8273242-.8254481-1.2922667-1.9461235-1.2922637-3.1148107.0000216-.1870677.0100359-.3740007.03-.56l.68-5.43v-.02l.99-7.93c.8857009.2254753 1.7960497.3396888 2.71.34.5289651.0005871 1.0571911-.0395314 1.58-.12l2.12 7.73v.01l.68 5.42c.1589318 1.2565414-.2304382 2.520721-1.0687966 3.4700949s-2.0446528 1.4921567-3.3112034 1.4899051z"/><path id="Shape" d="m41.1 57.79h-.01c-1.1678465.4859777-2.4882528.446459-3.6249451-.1084918s-1.9799638-1.5717731-2.3150549-2.7915082l-1.45-5.27v-.01l-2.12-7.73c1.4309228-.1996065 2.8077287-.6823384 4.05-1.42l4.92 6.33 2.7 4.75c.6238781 1.0996751.7456472 2.4142647.3343745 3.6098248-.4112726 1.1955602-1.3160071 2.1570325-2.4843745 2.6401752z"/></g><path id="Shape" d="m43.25 51.54-2.7-4.75-4.92-6.33c-.7039057.4118953-1.4510885.7449081-2.228.993l4.148 5.337 2.7 4.75c.6238781 1.0996751.7456472 2.4142647.3343745 3.6098248-.4112726 1.1955602-1.3160071 2.1570325-2.4843745 2.6401752h-.01c-.06.025-.122.032-.183.054 1.0297618.3845293 2.1668742.365238 3.183-.054h.01c1.1683674-.4831427 2.0731019-1.444615 2.4843745-2.6401752.4112727-1.1955601.2895036-2.5101497-.3343745-3.6098248z" fill="#cad9fc"/><path id="Shape" d="m50.51 51.5-.01.01c-.8955544.8923056-2.1304618 1.3582139-3.3922395 1.2798308-1.2617777-.0783832-2.4295276-.6935475-3.2077605-1.6898308l-3.35-4.31-4.92-6.33c1.2407251-.7431185 2.3243478-1.7214362 3.19-2.88l6.97 3.97.04.02 4.27 3.33c.9962833.7782329 1.6114476 1.9459828 1.6898308 3.2077605.0783831 1.2617777-.3875252 2.4966851-1.2798308 3.3922395z" fill="#e8edfc"/><path id="Shape" d="m50.1 44.9-4.27-3.33-.04-.02-6.97-3.97c-.3076633.4020872-.6417342.7832621-1 1.141l4.97 2.829.04.02 4.27 3.33c.9962833.7782329 1.6114476 1.9459828 1.6898308 3.2077605.0783831 1.2617777-.3875252 2.4966851-1.2798308 3.3922395l-.01.01c-.4484213.4495785-.9892524.7962564-1.585 1.016 1.5962771.5754711 3.3812525.1799345 4.585-1.016l.01-.01c.8923056-.8955544 1.3582139-2.1304618 1.2798308-3.3922395-.0783832-1.2617777-.6935475-2.4295276-1.6898308-3.2077605z" fill="#cad9fc"/><path id="Shape" d="m56.79 42.09v.01c-.4831427 1.1683674-1.444615 2.0731019-2.6401752 2.4843745-1.1955601.4112727-2.5101497.2895036-3.6098248-.3343745l-4.71-2.68-.04-.02-6.97-3.97c.8615246-1.1566502 1.4867606-2.4716845 1.84-3.87l7.93.99h.02l5.28 1.45c1.2197351.3350911 2.2365574 1.1783626 2.7915082 2.3150549s.5944695 2.4570986.1084918 3.6249451z" fill="#e8edfc"/><path id="Shape" d="m53.89 36.15-5.28-1.45h-.02l-7.93-.99c-.031.123-.075.24-.111.361l5.041.629h.02l5.28 1.45c1.2197351.3350911 2.2365574 1.1783626 2.7915082 2.3150549s.5944695 2.4570986.1084918 3.6249451v.01c-.4706248 1.1403858-1.4005511 2.0292806-2.561 2.448 2.2099744.8002759 4.6587084-.2776779 5.561-2.448v-.01c.4859777-1.1678465.446459-2.4882528-.1084918-3.6249451s-1.5717731-1.9799638-2.7915082-2.3150549z" fill="#cad9fc"/><path id="Shape" d="m59 31c.0026561 1.1686842-.4597412 2.2904122-1.2851893 3.1177363-.8254481.8273242-1.9461235 1.2922667-3.1148107 1.2922637-.1870677-.0000216-.3740007-.0100359-.56-.03l-5.43-.68h-.02l-7.93-.99c.2254753-.8857009.3396888-1.7960497.34-2.71.0005871-.5289651-.0395314-1.0571911-.12-1.58l7.73-2.12h.01l5.42-.68c1.2565414-.1589318 2.520721.2304382 3.4700949 1.0687966s1.4921567 2.0446528 1.4899051 3.3112034z" fill="#e8edfc"/><path id="Shape" d="m54.04 26.62-1.207.151c1.879239.553058 3.1665256 2.2818691 3.1577195 4.2407808-.0088062 1.9589117-1.311584 3.6760792-3.1957195 4.2122192l1.245.156c.1859993.0199641.3729323.0299784.56.03 1.6400685-.0050125 3.1420088-.9193503 3.8996016-2.3739646s.6457963-3.2094191-.2902656-4.5561328-2.5418911-2.0630594-4.169336-1.8599026z" fill="#cad9fc"/><path id="Shape" d="m53.89 25.85-5.27 1.45h-.01l-7.73 2.12c-.1996065-1.4309228-.6823384-2.8077287-1.42-4.05l6.33-4.92 4.75-2.7c1.0996751-.6238781 2.4142647-.7456472 3.6098248-.3343745 1.1955602.4112726 2.1570325 1.3160071 2.6401752 2.4843745v.01c.4859777 1.1678465.446459 2.4882528-.1084918 3.6249451s-1.5717731 1.9799638-2.7915082 2.3150549z" fill="#e8edfc"/><path id="Shape" d="m56.79 19.91v-.01c-.9022916-2.1703221-3.3510256-3.2482759-5.561-2.448 1.1604489.4187194 2.0903752 1.3076142 2.561 2.448v.01c.4859777 1.1678465.446459 2.4882528-.1084918 3.6249451s-1.5717731 1.9799638-2.7915082 2.3150549l-5.27 1.45h-.01l-4.879 1.338c.056.259.113.517.149.782l7.73-2.12h.01l5.27-1.45c1.2197351-.3350911 2.2365574-1.1783626 2.7915082-2.3150549s.5944695-2.4570986.1084918-3.6249451z" fill="#cad9fc"/><path id="Shape" d="m50.1 17.1-4.31 3.35-6.33 4.92c-.7431185-1.2407251-1.7214362-2.3243478-2.88-3.19l3.97-6.97.02-.04 3.33-4.27c.7782329-.99628333 1.9459828-1.6114476 3.2077605-1.68983076 1.2617777-.07838317 2.4966851.38752512 3.3922395 1.27983076l.01.01c.8923056.8955544 1.3582139 2.1304618 1.2798308 3.3922395-.0783832 1.2617777-.6935475 2.4295276-1.6898308 3.2077605z" fill="#e8edfc"/><path id="Shape" d="m50.51 10.5-.01-.01c-1.2037475-1.19593451-2.9887229-1.59147106-4.585-1.016.5957476.21974363 1.1365787.5664215 1.585 1.016l.01.01c.8923056.8955544 1.3582139 2.1304618 1.2798308 3.3922395-.0783832 1.2617777-.6935475 2.4295276-1.6898308 3.2077605l-4.31 3.35-4.413 3.43c.4022564.4653292.7645409.9637631 1.083 1.49l6.33-4.92 4.31-3.35c.9962833-.7782329 1.6114476-1.9459828 1.6898308-3.2077605.0783831-1.2617777-.3875252-2.4966851-1.2798308-3.3922395z" fill="#cad9fc"/><path id="Shape" d="m43.25 10.46-2.68 4.71-.02.04-3.97 6.97c-1.1566502-.8615246-2.4716845-1.4867606-3.87-1.84l.99-7.95v-.01l1.45-5.27c.3350911-1.21973513 1.1783626-2.23655741 2.3150549-2.79150821 1.1366923-.55495079 2.4570986-.59446953 3.6249451-.10849179h.01c1.1683674.48314268 2.0731019 1.44461504 2.4843745 2.64017516.4112727 1.19556012.2895036 2.51014972-.3343745 3.60982484z" fill="#e8edfc"/><path id="Shape" d="m41.1 4.21h-.01c-1.0161258-.41923805-2.1532382-.4385293-3.183-.054.061.022.123.029.183.054h.01c1.1683674.48314268 2.0731019 1.44461504 2.4843745 2.64017516.4112727 1.19556012.2895036 2.51014972-.3343745 3.60982484l-2.68 4.71-.02.04-3.237 5.684c.8042671.3366863 1.5653465.7684234 2.267 1.286l3.97-6.97.02-.04 2.68-4.71c.6238781-1.09967512.7456472-2.41426472.3343745-3.60982484-.4112726-1.19556012-1.3160071-2.15703248-2.4843745-2.64017516z" fill="#cad9fc"/><path id="Shape" d="m41 31c.00071 3.8789411-2.0390609 7.4722805-5.37 9.46-1.2422713.7376616-2.6190772 1.2203935-4.05 1.42-.5228089.0804686-1.0510349.1205871-1.58.12-3.8789411.00071-7.4722805-2.0390609-9.46-5.37-.7376616-1.2422713-1.2203935-2.6190772-1.42-4.05-.0804686-.5228089-.1205871-1.0510349-.12-1.58-.00071-3.8789411 2.0390609-7.4722805 5.37-9.46 1.2422713-.7376616 2.6190772-1.2203935 4.05-1.42.5228089-.0804686 1.0510349-.1205871 1.58-.12 3.8789411-.00071 7.4722805 2.0390609 9.46 5.37.7376616 1.2422713 1.2203935 2.6190772 1.42 4.05.0804686.5228089.1205871 1.0510349.12 1.58z" fill="#7facfa"/><circle id="Oval" cx="30" cy="31" fill="#a4c2f7" r="7"/><path id="Shape" d="m8.771 44.548c-1.16044889-.4187194-2.09037519-1.3076142-2.561-2.448v-.01c-.48597774-1.1678465-.446459-2.4882528.10849179-3.6249451.5549508-1.1366923 1.57177308-1.9799638 2.79150821-2.3150549l5.27-1.45-5.42.68c-.019 0-.036 0-.055 0l-2.795.77c-1.21973513.3350911-2.23655741 1.1783626-2.79150821 2.3150549-.55495079 1.1366923-.59446953 2.4570986-.10849179 3.6249451v.01c.90229159 2.1703221 3.35102563 3.2482759 5.561 2.448z" fill="#fff"/><path id="Shape" d="m6.11 25.85 2.792.767c.506.052 1.705.209 5.488.683l-5.28-1.45c-1.21973513-.3350911-2.23655741-1.1783626-2.79150821-2.3150549-.55495079-1.1366923-.59446953-2.4570986-.10849179-3.6249451v-.01c.47062481-1.1403858 1.40055111-2.0292806 2.561-2.448-2.20997437-.8002759-4.65870841.2776779-5.561 2.448v.01c-.48597774 1.1678465-.446459 2.4882528.10849179 3.6249451.5549508 1.1366923 1.57177308 1.9799638 2.79150821 2.3150549z" fill="#fff"/><path id="Shape" d="m5.96 35.38 1.208-.151c-1.88072754-.552772-3.16894308-2.283043-3.15920556-4.2432976.00973751-1.9602546 1.31507921-3.6776422 3.20120556-4.2117024-.59814317-.1046377-1.20303629-.1661296-1.81-.184-1.64006847.0050125-3.14200876.9193503-3.89960155 2.3739646-.7575928 1.4546143-.64579636 3.2094191.29026557 4.5561328s2.54189104 2.0630594 4.16933598 1.8599026z" fill="#fff"/><path id="Shape" d="m9.49 51.5c1.2044327 1.2055096 2.9976883 1.6050938 4.6 1.025-1.5032223-.5545988-2.5882303-1.8797638-2.8352981-3.4628666-.2470679-1.5831028.3825526-3.1758623 1.6452981-4.1621334l4.31-3.35-4.75 2.7c-.7387377.4160574-1.5831828.6065703-2.429.548l-.131.1c-.9969475.7782351-1.61256484 1.9464155-1.69095688 3.2087185-.07839203 1.262303.38795887 2.4976763 1.28095688 3.3932815z" fill="#fff"/><path id="Shape" d="m12.9 17.1c-1.2616496-.9864438-1.8910081-2.5781823-1.6451016-4.1606997.2459065-1.5825173 1.3286047-2.9082203 2.8301016-3.4653003-2.0413311-.7454807-4.32116762.11102252-5.36668653 2.0161903-1.04551892 1.9051678-.54352348 4.2882861 1.18168653 5.6098097l.131.1c.8458172-.0585703 1.6902623.1319426 2.429.548l4.71 2.68z" fill="#fff"/><path id="Shape" d="m58.171 26.938c-.5961953-.5234822-1.3001225-.9095838-2.062-1.131 1.850449-1.4813597 2.5146518-3.9985098 1.636-6.2-.0085035-.0285121-.0185176-.0565517-.03-.084-.9156957-2.2226463-3.1903677-3.5723665-5.58-3.311 1.1554649-2.1083566.7812137-4.7262604-.9187098-6.42641531-1.6999235-1.70015492-4.3177764-2.07476256-6.4262902-.91958469.2619856-2.38972761-1.0873601-4.66486321-3.31-5.581-.0263462-.01112709-.0534065-.02048126-.081-.028-2.2037291-.88264376-4.7254832-.21808354-6.208 1.636-.6701515-2.31040884-2.7863624-3.90002125-5.192-3.90002125s-4.5218485 1.58961241-5.192 3.90002125c-1.4819943-1.84951481-3.9986836-2.51319013-6.2-1.635-.0285121.00850349-.0565517.01851764-.084.03-2.2226399.91613679-3.5719856 3.19127239-3.31 5.581-2.1077865-1.15433205-4.7243905-.77986693-6.42380706.91931819-1.69941652 1.69918511-2.07423795 4.31573811-.92019294 6.42368181-2.39026762-.2636939-4.66687603 1.0849846-5.584 3.308-.01112709.0263462-.02048126.0534065-.028.081-.88264376 2.2037291-.21808354 4.7254832 1.636 6.208-1.89233809.5539216-3.33390774 2.0928279-3.76318034 4.0172753-.4292726 1.9244473.2216361 3.9301078 1.69918034 5.2357247.60180467.5218121 1.31185588.9036482 2.079 1.118-1.86593906 1.4796073-2.53820842 4.0092597-1.653 6.22.00850349.0285121.01851764.0565517.03.084.90133459 2.2360498 3.1889175 3.5910626 5.583 3.307-.91589517 1.6770459-.87990744 3.7127053.09469274 5.3563298.97460017 1.6436245 2.74345766 2.651765 4.65430726 2.6526702.111 0 .223 0 .334-.011.7919028-.0493911 1.5631918-.2726859 2.259-.654-.2619856 2.3897276 1.0873601 4.6648632 3.31 5.581.0263462.0111271.0534065.0204813.081.028 2.2037291.8826438 4.7254832.2180835 6.208-1.636.6701515 2.3104088 2.7863624 3.9000212 5.192 3.9000212s4.5218485-1.5896124 5.192-3.9000212c1.4833005 1.8475049 3.9985383 2.5107975 6.2 1.635.0285121-.0085035.0565517-.0185176.084-.03 2.2226399-.9161368 3.5719856-3.1912724 3.31-5.581.6958082.3813141 1.4670972.6046089 2.259.654.111.007.222.011.334.011 1.9127473.0020606 3.6844146-1.0060545 4.6597128-2.6514724.9752982-1.6454178 1.0092461-3.6835415.0892872-5.3605276 2.3903343.2664856 4.668052-1.0826837 5.583-3.307.0111271-.0263462.0204813-.0534065.028-.081.8826438-2.2037291.2180835-4.7254832-1.636-6.208 1.8923381-.5539216 3.3339077-2.0928279 3.7631803-4.0172753.4292726-1.9244473-.2216361-3.9301078-1.6991803-5.2357247zm-4.348-8.577c.9024035.3093635 1.6337086.9829913 2.016 1.857.0076776.025913.0170307.0512998.028.076.3754388.9029882.3446311 1.9237886-.0845791 2.8024925-.4292101.8787039-1.2154092 1.5305273-2.1584209 1.7895075l-5.209 1.433c-.023 0-.046.01-.069.016l-6.7 1.836c-.2110088-.8718547-.5203231-1.7169334-.922-2.519l5.62-4.369 4.688-2.664c.8495566-.4845873 1.8670082-.5786405 2.791-.258zm-23.823 22.639c-5.5228475 0-10-4.4771525-10-10s4.4771525-10 10-10 10 4.4771525 10 10c-.0060624 5.5203344-4.4796656 9.9939376-10 10zm17.172-30.792c1.4924034-.0896214 2.8697702.8013975 3.399852 2.1993651.5300818 1.3979675.0897703 2.9782142-1.086852 3.9006349l-9.807 7.623c-.5306196-.7257432-1.1403739-1.3901674-1.818-1.981l3.54-6.22 3.287-4.214c.602622-.7719594 1.5075009-1.2482498 2.485-1.308zm-11.058-2.83c.2582402-.94356767.9098399-1.7304828 1.7886988-2.16015137.8788588-.42966857 1.9000651-.46057783 2.8033012-.08484863.0236967.01063563.0480857.01965622.073.027.884745.38695951 1.5639393 1.13089683 1.8689666 2.04712264.3050274.91622581.2072832 1.9188193-.2689666 2.75887736l-6.147 10.8c-.7640649-.468981-1.5785349-.8503864-2.428-1.137l.88-7.062zm-8.676-3.226c.9387513-1.06045316 2.4346376-1.4314246 3.7601093-.93248613 1.3254718.49893846 2.2054294 1.76423289 2.2118907 3.18048613.0000864.14561291-.0072564.2911354-.022.436l-.68 5.42v.045l-.854 6.857c-.6129126-.1011066-1.2328174-.1539356-1.854-.158-.283 0-.56.023-.838.042l-1.876-6.837-.674-5.369c-.1220112-.97169625.1787656-1.9490388.826-2.684zm-10.077 3.025c.3093635-.90240353.9829913-1.63370863 1.857-2.016.025913-.00767764.0512998-.01703067.076-.028.9029882-.37543876 1.9237886-.34463106 2.8024925.08457906.8787039.42921013 1.5305273 1.21540919 1.7895075 2.15842094l1.433 5.209c0 .023.01.046.016.069l1.836 6.7c-.8718547.2110088-1.7169334.5203231-2.519.922l-4.35-5.6-.024-.037-2.659-4.674c-.4824225-.84914855-.5764051-1.8647433-.258-2.788zm-7.154 4.023c.6929367-.6880166 1.6470573-1.046806 2.6216403-.9858468s1.8765581.5358456 2.4783597 1.3048468l3.277 4.2c.021715.0346769.0454214.0680662.071.1l4.274 5.5c-.7257432.5306196-1.3901674 1.1403739-1.981 1.818l-6.218-3.537-4.214-3.287c-.7725525-.6031374-1.248919-1.5089769-1.30803165-2.4873009-.05911265-.9783239.30472045-1.9349303.99903165-2.6266991zm-6.074 9.1c.01063563-.0236967.01965622-.0480857.027-.073.38695951-.884745 1.13089683-1.5639393 2.04712264-1.8689666.91622581-.3050274 1.9188193-.2072832 2.75887736.2689666l10.8 6.147c-.468981.7640649-.8503864 1.5785349-1.137 2.428l-7.06-.882-5.191-1.434c-.94356767-.2582402-1.7304828-.9098399-2.16015137-1.7886988-.42966857-.8788588-.46057783-1.9000651-.08484863-2.8033012zm-2.133 10.7c-.00055792-1.8796199 1.52038658-3.4050378 3.4-3.41.14561291-.0000864.2911354.0072564.436.022l5.43.68.062.006 6.83.852c-.1008454.6116009-.1536734 1.2301559-.158 1.85 0 .283.023.56.042.838l-6.837 1.876-5.369.674c-.97197927.1233737-1.95002566-.1776755-2.68438729-.8262722-.73436163-.6485968-1.15394738-1.5819527-1.15161271-2.5617278zm4.177 12.639c-.90240353-.3093635-1.63370863-.9829913-2.016-1.857-.00767764-.025913-.01703067-.0512998-.028-.076-.37543876-.9029882-.34463106-1.9237886.08457906-2.8024925.42921013-.8787039 1.21540919-1.5305273 2.15842094-1.7895075l5.209-1.433c.023 0 .046-.01.069-.016l6.7-1.836c.2110088.8718547.5203231 1.7169334.922 2.519l-5.62 4.369-4.691 2.664c-.84914855.4824225-1.8647433.5764051-2.788.258zm6.651 8.153c-1.4924034.0896214-2.8697702-.8013975-3.399852-2.1993651-.53008179-1.3979675-.08977032-2.9782142 1.086852-3.9006349l9.807-7.623c.5306196.7257432 1.1403739 1.3901674 1.818 1.981l-3.54 6.22-3.287 4.214c-.602622.7719594-1.5075009 1.2482498-2.485 1.308zm11.058 2.83c-.2582402.9435677-.9098399 1.7304828-1.7886988 2.1601514-.8788588.4296685-1.9000651.4605778-2.8033012.0848486-.0236967-.0106356-.0480857-.0196562-.073-.027-.884745-.3869595-1.5639393-1.1308968-1.8689666-2.0471226-.3050274-.9162258-.2072832-1.9188193.2689666-2.7588774l6.147-10.8c.7640649.468981 1.5785349.8503864 2.428 1.137l-.882 7.06zm8.676 3.226c-.9387513 1.0604532-2.4346376 1.4314246-3.7601093.9324861-1.3254718-.4989384-2.2054294-1.7642329-2.2118907-3.1804861-.0000864-.1456129.0072564-.2911354.022-.436l.68-5.43.006-.062.852-6.83c.6116009.1008454 1.2301559.1536734 1.85.158.283 0 .56-.023.838-.042l1.876 6.842.674 5.369c.1205309.9700396-.180151 1.9452537-.826 2.679zm10.077-3.025c-.3093635.9024035-.9829913 1.6337086-1.857 2.016-.025913.0076776-.0512998.0170307-.076.028-.9029882.3754388-1.9237886.3446311-2.8024925-.0845791-.8787039-.4292101-1.5305273-1.2154092-1.7895075-2.1584209l-1.433-5.209c0-.023-.01-.046-.016-.069l-1.836-6.7c.8718547-.2110088 1.7169334-.5203231 2.519-.922l4.369 5.62 2.664 4.688c.4833134.8499576.5773147 1.8668475.258 2.791zm7.154-4.02c-.6926491.6884343-1.6467608 1.047605-2.6214459.9868305s-1.8767893-.5356857-2.4785541-1.3048305l-7.623-9.807c.7257432-.5306196 1.3901674-1.1403739 1.981-1.818l6.219 3.54 4.214 3.287c.7725525.6031374 1.248919 1.5089769 1.3080316 2.4873009.0591127.9783239-.3047204 1.9349303-.9990316 2.6266991zm6.074-9.1c-.0106356.0236967-.0196562.0480857-.027.073-.3869595.884745-1.1308968 1.5639393-2.0471226 1.8689666-.9162258.3050274-1.9188193.2072832-2.7588774-.2689666l-10.8-6.147c.468981-.7640649.8503864-1.5785349 1.137-2.428l7.06.882 5.191 1.426c.9435677.2582402 1.7304828.9098399 2.1601514 1.7886988.4296685.8788588.4605778 1.9000651.0848486 2.8033012zm-1.267-7.293c-.1456129.0000864-.2911354-.0072564-.436-.022l-5.43-.68-.062-.006-6.83-.852c.1008454-.6116009.1536734-1.2301559.158-1.85 0-.283-.023-.56-.042-.838l6.842-1.876 5.369-.674c1.2543549-.149052 2.4884205.4070981 3.2076064 1.4455558.7191859 1.0384576.8057975 2.3892794.2251223 3.5110811s-1.7336096 1.8310006-2.9967287 1.8433631z" fill="#428dff"/><path id="Shape" d="m30 23c-4.418278 0-8 3.581722-8 8s3.581722 8 8 8 8-3.581722 8-8c-.0049599-4.4162219-3.5837781-7.9950401-8-8zm0 14c-3.3137085 0-6-2.6862915-6-6s2.6862915-6 6-6 6 2.6862915 6 6c-.0033074 3.3123376-2.6876624 5.9966926-6 6z" fill="#428dff"/></g></g></svg>