<svg height="512" viewBox="0 0 58 58" width="512" xmlns="http://www.w3.org/2000/svg"><g id="Page-1" fill="none" fill-rule="evenodd"><g id="074---Blossom" fill-rule="nonzero"><path id="Shape" d="m57.76 27c-1-3.1-3.17-3.65-3.94-6.12s.69-4.31-.27-7.41c-1.54-4.93-8.1-3.62-14.06.77 2.16-7.31 1.3-14.24-3.69-14.24-3.12 0-4.3 2-6.8 2s-3.72-2-6.84-2c-5 0-5.8 6.92-3.64 14.19-5.95-4.39-12.52-5.69-14.07-.73-1 3.1.51 4.89-.26 7.37s-2.99 3.06-3.95 6.17c-1.53 4.93 4.52 7.9 11.82 8-5.85 4.55-9.06 10.67-5.06 13.74 2.52 1.91 4.61 1 6.64 2.54s1.86 3.9 4.39 5.82c4 3 8.61-2.05 10.94-9.26 2.34 7.21 6.93 12.3 11 9.24 2.53-1.91 2.35-4.27 4.37-5.8s4.14-.65 6.66-2.56c4-3 .8-9.17-5-13.73 7.25-.09 13.3-3.07 11.76-7.99z" fill="#7d6599"/><path id="Shape" d="m39.49 14.2c-1.1590068 4.0416518-3.1632277 7.7910446-5.88 11-1.6809788-2.0142538-4.4756878-2.7028053-6.9-1.7-2.0298324-3.6384276-4.8198127-6.7967672-8.18-9.26-2.16-7.32-1.32-14.24 3.64-14.24 3.12 0 4.34 2 6.83 2s3.67-2 6.79-2c5 0 5.86 6.93 3.7 14.2z" fill="#b49aca"/><path id="Shape" d="m29 47.84c-2.33 7.21-6.92 12.31-10.94 9.26-2.53-1.92-2.37-4.29-4.39-5.82s-4.12-.63-6.67-2.54c-4-3.07-.82-9.19 5-13.75 3.2221254-2.5598796 6.9832836-4.3549778 11-5.25.3099676 2.5029335 2.1520831 4.5448446 4.61 5.11-.4965363 4.3795353-.0219515 8.8146832 1.39 12.99z" fill="#5d4c72"/><path id="Shape" d="m51 48.72c-2.52 1.91-4.64 1-6.66 2.56s-1.84 3.89-4.34 5.8c-4 3.06-8.63-2-11-9.24-1.3965715-4.1822072-1.8540929-8.6208474-1.34-13 .4391077.1042363.8886947.1579183 1.34.16 1.9614957-.0009534 3.7986784-.9606199 4.92-2.57 3.7726177 1.7826451 7.908441 2.6625346 12.08 2.57 5.8 4.55 9 10.67 5 13.72z" fill="#b49aca"/><path id="Shape" d="m35 29c0 3.3137085-2.6862915 6-6 6s-6-2.6862915-6-6 2.6862915-6 6-6 6 2.6862915 6 6z" fill="#f3d55b"/><g fill="#7d6599"><path id="Shape" d="m29 19c-.5522847 0-1-.4477153-1-1v-12c0-.55228475.4477153-1 1-1s1 .44771525 1 1v12c0 .5522847-.4477153 1-1 1z"/><path id="Shape" d="m33 16c-.0797099.0096348-.1602901.0096348-.24 0-.2693563-.0564908-.5035239-.2214957-.6473416-.4561455-.1438176-.2346498-.1845704-.5181992-.1126584-.7838545l1-4c.1491291-.5161023.6793873-.82216082 1.2008781-.6931322.5214908.1290287.8478565.6470354.7391219 1.1731322l-1 4c-.1074334.4354748-.4916828.7461445-.94.76z"/><path id="Shape" d="m25 16c-.4706972.0137136-.8871845-.3028167-1-.76l-1-4c-.1325483-.5522847.2077153-1.1074517.76-1.24.5522847-.13254834 1.1074517.2077153 1.24.76l1 4c.071912.2656553.0311592.5492047-.1126584.7838545-.1438177.2346498-.3779853.3996547-.6473416.4561455-.0797099.0096348-.1602901.0096348-.24 0z"/></g><path id="Shape" d="m19.41 26.12c-.1055107.0022735-.2105546-.014669-.31-.05l-11.41-3.7c-.52743191-.1712083-.81620822-.7375681-.64499996-1.265.17120827-.5274319.73756803-.8162082 1.26499996-.645l11.41 3.71c.4662858.1532566.7524169.6222666.6753559 1.1070053s-.4945313.8418941-.9853559.8429947z" fill="#5d4c72"/><path id="Shape" d="m17.79 21.39c-.1872252.0006008-.3708587-.051371-.53-.15l-3.49-2.19c-.3304541-.1757911-.5350695-.5214089-.530268-.8956806.0048014-.3742718.2182158-.7145268.5530707-.8817827.334855-.1672559.7350801-.1335063 1.0371973.0874633l3.5 2.18c.2241343.1418682.3827194.3669754.4408579.6257855.0581385.2588102.0110664.5301157-.1308579.7542145-.1831155.2929855-.5044985.4706914-.85.47z" fill="#5d4c72"/><path id="Shape" d="m15.32 29h-.07l-4.11-.29c-.3572656-.0250086-.6740507-.2387164-.8310254-.5606218s-.1302909-.7031032.07-1 .5437598-.4643868.9010254-.4393782l4.11.28c.5522847.01933.9843299.4827153.9649999 1.035-.0193299.5522847-.4827152.9843299-1.0349999.965z" fill="#5d4c72"/><path id="Shape" d="m15.48 48.61c-.2109096-.0049023-.4158644-.0709047-.59-.19-.2152922-.1561269-.3595264-.3915809-.400811-.6543011-.0412846-.2627203.0237813-.5310643.180811-.7456989l7.06-9.71c.20088-.3132699.5591024-.4890783.9298021-.4563284.3706996.0327499.69255.2686403.8353947.6122769.1428448.3436367.0830525.7381703-.1551968 1.0240515l-7 9.71c-.1989599.2732181-.5224667.4274481-.86.41z" fill="#3d324c"/><path id="Shape" d="m14.38 41.62c-.2958006.0029649-.5777348-.125187-.77-.35-.1712242-.2028225-.2547874-.4653978-.2322787-.7298748s.1492423-.5091546.3522787-.6801252l3.16-2.65c.2733082-.2304363.6487917-.2975601.9850094-.1760864.3362178.1214737.5820904.41309.645.765s-.0667012.7106501-.3400094.9410864l-3.18 2.65c-.1746038.1447585-.3932306.225862-.62.23z" fill="#3d324c"/><path id="Shape" d="m22.46 47.5c-.1266534.0003081-.2522124-.0234463-.37-.07-.5100784-.207903-.7559887-.7891456-.55-1.3l1.54-3.83c.118357-.3525644.4225908-.6103239.7898081-.6691582s.7367506.0909765.9593294.3889173c.2225787.2979409.2614309.6947892.1008625 1.0302409l-1.54 3.83c-.1547874.3767941-.5226565.6220401-.93.62z" fill="#3d324c"/><path id="Shape" d="m42.52 48.61c-.3200539.0008303-.6211686-.1515858-.81-.41l-7.05-9.71c-.2382493-.2858812-.2980416-.6804148-.1551968-1.0240515.1428447-.3436366.4646951-.579527.8353947-.6122769.3706997-.0327499.7289221.1430585.9298021.4563284l7.06 9.69c.1570297.2146346.2220956.4829786.180811.7456989-.0412846.2627202-.1855188.4981742-.400811.6543011-.1718903.1262066-.3770253.1992208-.59.21z" fill="#7d6599"/><path id="Shape" d="m35.54 47.5c-.4073435.0020401-.7752126-.2432059-.93-.62l-1.54-3.83c-.1605684-.3354517-.1217162-.7323.1008625-1.0302409.2225788-.2979408.5921121-.4477516.9593294-.3889173s.6714511.3165938.7898081.6691582l1.54 3.83c.2059887.5108544-.0399216 1.092097-.55 1.3-.1177876.0465537-.2433466.0703081-.37.07z" fill="#7d6599"/><path id="Shape" d="m43.62 41.62c-.2336522.0004565-.4600879-.0809188-.64-.23l-3.16-2.65c-.2733082-.2304363-.402919-.5891764-.3400094-.9410864s.3087822-.6435263.645-.765c.3362177-.1214737.7117012-.0543499.9850094.1760864l3.16 2.65c.2030364.1709706.32977.4156482.3522787.6801252s-.0610545.5270523-.2322787.7298748c-.1922652.224813-.4741994.3529649-.77.35z" fill="#7d6599"/><path id="Shape" d="m39 27.12c-.4908246-.0011006-.9082949-.358256-.9853559-.8429947s.2090701-.9537487.6753559-1.1070053l11.41-3.71c.3411886-.1107523.7155456-.0310697.9820543.2090321.2665086.2401019.3846799.6041458.31.955-.07468.3508542-.3308657.6352156-.6720543.7459679l-11.41 3.7c-.0992719.0360041-.2044424.0529671-.31.05z" fill="#5d4c72"/><path id="Shape" d="m43.09 30c-.5522847.0248528-1.0201471-.4027153-1.045-.955-.0248528-.5522847.4027153-1.0201472.955-1.045l4.11-.28c.5522847-.0386599 1.0313401.3777153 1.07.93s-.3777153 1.0313401-.93 1.07l-4.09.28z" fill="#5d4c72"/><path id="Shape" d="m40.62 22.39c-.3455015.0006914-.6668845-.1770145-.85-.47-.1410213-.2253123-.1865377-.4974983-.1264947-.7564336.0600429-.2589352.2207043-.4833119.4464947-.6235664l3.49-2.18c.3021172-.2209696.7023423-.2547192 1.0371973-.0874633.3348549.1672559.5482693.5075109.5530707.8817827.0048015.3742717-.1998139.7198895-.530268.8956806l-3.49 2.19c-.1591413.098629-.3427748.1506008-.53.15z" fill="#5d4c72"/></g></g></svg>