<svg height="512" viewBox="0 0 60 60" width="512" xmlns="http://www.w3.org/2000/svg"><g id="Page-1" fill="none" fill-rule="evenodd"><g id="076---Daisy" fill-rule="nonzero" transform="translate(-1 -1)"><g id="Icons" transform="translate(2 2)"><path id="Shape" d="m33.41 4.4c.0099626.18653374.0099626.37346626 0 .56l-.68 5.42-1 8c-.8904682-.240628-1.8076669-.3682967-2.73-.38-.5289652-.000591-1.0571915.0395274-1.58.12l-2.12-7.73-.68-5.39c-.1890524-1.61988391.5313269-3.2118584 1.8729678-4.1390931 1.341641-.9272347 3.0854834-1.03833274 4.5339459-.28885207 1.4484624.74948068 2.3650431 2.23716647 2.3830863 3.86794517z" fill="#9d27b0"/><path id="Shape" d="m27.42 18.12c-1.4309545.1994758-2.8077855.6822166-4.05 1.42l-4.92-6.33-2.7-4.75c-.6235424-1.09974123-.7451294-2.41420087-.3338918-3.6096588.4112375-1.19545792 1.3157483-2.15693992 2.4838918-2.6403412 1.1679698-.48426815 2.4876176-.44392292 3.623823.11079013s1.9796621 1.57042897 2.316177 2.78920987l1.45 5.27z" fill="#673ab7"/><path id="Shape" d="m23.37 19.54c-1.2406484.7432222-2.3242525 1.721523-3.19 2.88l-7-4-4.28-3.32c-.99571715-.7786093-1.61044833-1.9462596-1.6888182-3.2078234s.38712098-2.49631882 1.2788182-3.3921766c.89585778-.89169722 2.1306128-1.35718807 3.3921766-1.2788182s2.4292141.69310105 3.2078234 1.6888182l3.33 4.27z" fill="#9d27b0"/><path id="Shape" d="m20.18 22.42c-.861098 1.156907-1.4862921 2.4718532-1.84 3.87l-7.93-1-5.3-1.44c-1.2187809-.3365149-2.23449682-1.1799716-2.78920987-2.316177s-.59505828-2.4558532-.11079013-3.623823c.48340128-1.1681435 1.44488328-2.0726543 2.6403412-2.4838918 1.19545793-.4112376 2.50991757-.2896506 3.6096588.3338918l4.71 2.68z" fill="#673ab7"/><path id="Shape" d="m18 29c-.000591.5289652.0395274 1.0571915.12 1.58l-7.73 2.12-5.39.68c-1.61988391.1890524-3.2118584-.5313269-4.1390931-1.8729678-.9272347-1.341641-1.03833274-3.0854834-.28885207-4.5339459.74948068-1.4484624 2.23716647-2.3650431 3.86794517-2.3830863.18653374-.0099626.37346626-.0099626.56 0l5.43.68 7.93 1c-.2338762.8913286-.3548237 1.8085132-.36 2.73z" fill="#9d27b0"/><path id="Shape" d="m19.54 34.63-6.33 4.92-4.75 2.7c-1.09974123.6235424-2.41420087.7451294-3.6096588.3338918-1.19545792-.4112375-2.15693992-1.3157483-2.6403412-2.4838918-.48426815-1.1679698-.44392292-2.4876176.11079013-3.623823s1.57042897-1.9796621 2.78920987-2.316177l5.27-1.45 7.73-2.12c.2038442 1.4282197.689957 2.8015735 1.43 4.04z" fill="#673ab7"/><path id="Shape" d="m22.42 37.82-4 7-3.32 4.28c-.7786093.9957171-1.9462596 1.6104483-3.2078234 1.6888182s-2.49631882-.387121-3.3921766-1.2788182c-.89169722-.8958578-1.35718807-2.1306128-1.2788182-3.3921766s.69310105-2.4292141 1.6888182-3.2078234l4.31-3.35 6.33-4.92c.7413257 1.2361379 1.7161077 2.31621 2.87 3.18z" fill="#9d27b0"/><path id="Shape" d="m26.29 39.66-1 7.93-1.45 5.28c-.3365149 1.2187809-1.1799716 2.2344968-2.316177 2.7892099-1.1362054.554713-2.4558532.5950582-3.623823.1107901-1.1681435-.4834013-2.0726543-1.4448833-2.4838918-2.6403412-.4112376-1.1954579-.2896506-2.5099176.3338918-3.6096588l2.68-4.71 4-7c1.1531144.863473 2.464607 1.4920381 3.86 1.85z" fill="#673ab7"/><path id="Shape" d="m29 58c-1.1686842.0026561-2.2904122-.4597412-3.1177363-1.2851893-.8273242-.8254481-1.2922667-1.9461235-1.2922637-3.1148107-.0099626-.1865337-.0099626-.3734663 0-.56l.68-5.43 1-7.93c.8930413.2203902 1.8101999.3278959 2.73.32.5289652.000591 1.0571915-.0395274 1.58-.12l2.12 7.73.68 5.39c.1704708 1.2627191-.2135423 2.5374556-1.0531345 3.4958942s-2.0526944 1.506893-3.3268655 1.5041058z" fill="#9d27b0"/><path id="Shape" d="m40.1 55.79c-1.1679698.4842681-2.4876176.4439229-3.623823-.1107901-1.1362054-.5547131-1.9796621-1.570429-2.316177-2.7892099l-1.46-5.27-2.12-7.73c1.4309545-.1994758 2.8077855-.6822166 4.05-1.42l4.92 6.33 2.7 4.75c.6199978 1.0988883.7396188 2.4107097.3286025 3.603613-.4110164 1.1929033-1.3133008 2.152626-2.4786025 2.636387z" fill="#673ab7"/><path id="Shape" d="m42.25 49.54-2.7-4.75-4.92-6.33c-.7044089.4141095-1.4522414.7494604-2.23 1l4.15 5.34 2.7 4.75c.6235424 1.0997412.7451294 2.4142009.3338918 3.6096588-.4112375 1.1954579-1.3157483 2.1569399-2.4838918 2.6403412-.0586218.0212805-.1188011.0379969-.18.05 1.0277907.3883236 2.1649258.3704441 3.18-.05 1.1709932-.4830324 2.0777396-1.446275 2.4891993-2.6442926s.2878988-2.5151197-.3391993-3.6157074z" fill="#4527a0"/><path id="Shape" d="m49.51 49.5c-.8958578.8916972-2.1306128 1.3571881-3.3921766 1.2788182s-2.4292141-.6931011-3.2078234-1.6888182l-3.35-4.31-4.92-6.33c1.2406484-.7432222 2.3242525-1.721523 3.19-2.88l7 4 4.27 3.33c.9957171.7786093 1.6104483 1.9462596 1.6888182 3.2078234s-.387121 2.4963188-1.2788182 3.3921766z" fill="#9d27b0"/><path id="Shape" d="m49.1 42.9-4.27-3.33-7-4c-.3034816.4051826-.6378095.7863164-1 1.14l5 2.83 4.27 3.36c.9957171.7786093 1.6104483 1.9462596 1.6888182 3.2078234s-.387121 2.4963188-1.2788182 3.3921766c-.4530034.4424238-.9950219.7833159-1.59 1 1.5949948.5771178 3.3796296.1883084 4.59-1 .8916972-.8958578 1.3571881-2.1306128 1.2788182-3.3921766s-.6931011-2.4292141-1.6888182-3.2078234z" fill="#6a1b9a"/><path id="Shape" d="m55.79 40.09c-.4834013 1.1681435-1.4448833 2.0726543-2.6403412 2.4838918-1.1954579.4112376-2.5099176.2896506-3.6096588-.3338918l-4.71-2.68-7-4c.861098-1.156907 1.4862921-2.4718532 1.84-3.87l7.93 1 5.28 1.45c1.2231842.3338007 2.24352 1.1779248 2.8005717 2.3169137s.5969199 2.4626358.1094283 3.6330863z" fill="#673ab7"/><path id="Shape" d="m52.89 34.15-5.28-1.45-7.93-1c0 .12-.08.24-.11.36l5 .63 5.28 1.45c1.2187809.3365149 2.2344968 1.1799716 2.7892099 2.316177.554713 1.1362054.5950582 2.4558532.1107901 3.623823-.4690945 1.1415165-1.3989945 2.0314599-2.56 2.45 2.2102272.7994058 4.6584914-.2794157 5.56-2.45.4819244-1.1614185.4451424-2.4733283-.1010992-3.6059201s-1.5499879-1.9781411-2.7589008-2.3240799z" fill="#4527a0"/><path id="Shape" d="m58 29c.0026561 1.1686842-.4597412 2.2904122-1.2851893 3.1177363-.8254481.8273242-1.9461235 1.2922667-3.1148107 1.2922637-.1865337.0099626-.3734663.0099626-.56 0l-5.43-.68-7.93-1c.2203902-.8930413.3278959-1.8101999.32-2.73.000591-.5289652-.0395274-1.0571915-.12-1.58l7.73-2.12 5.39-.68c1.2627191-.1704708 2.5374556.2135423 3.4958942 1.0531345s1.506893 2.0526944 1.5041058 3.3268655z" fill="#9d27b0"/><path id="Shape" d="m53 24.62-1.21.15c1.8914878.5337605 3.1977437 2.2596435 3.1977437 4.225s-1.3062559 3.6912395-3.1977437 4.225l1.25.16c.1865337.0099626.3734663.0099626.56 0 1.6748081.0439928 3.229899-.8648372 4.0135877-2.3456308.7836887-1.4807935.660608-3.2777718-.3176632-4.6378831-.9782713-1.3601113-2.6427554-2.0484225-4.2959245-1.7764861z" fill="#6a1b9a"/><path id="Shape" d="m52.89 23.85-5.27 1.45-7.73 2.12c-.1994758-1.4309545-.6822166-2.8077855-1.42-4.05l6.33-4.92 4.75-2.7c1.0997412-.6235424 2.4142009-.7451294 3.6096588-.3338918 1.1954579.4112375 2.1569399 1.3157483 2.6403412 2.4838918.4874916 1.1704505.4476234 2.4940974-.1094283 3.6330863s-1.5773875 1.983113-2.8005717 2.3169137z" fill="#673ab7"/><path id="Shape" d="m55.79 17.91c-.9015086-2.1705843-3.3497728-3.2494058-5.56-2.45 1.1610055.4185401 2.0909055 1.3084835 2.56 2.45.4842681 1.1679698.4439229 2.4876176-.1107901 3.623823-.5547131 1.1362054-1.570429 1.9796621-2.7892099 2.316177l-5.27 1.45-4.88 1.34c.06.26.11.52.15.78l7.73-2.12 5.27-1.45c1.2187809-.3365149 2.2344968-1.1799716 2.7892099-2.316177.554713-1.1362054.5950582-2.4558532.1107901-3.623823z" fill="#4527a0"/><path id="Shape" d="m49.1 15.1-4.31 3.35-6.33 4.92c-.7432222-1.2406484-1.721523-2.3242525-2.88-3.19l4-7 3.32-4.28c.7786093-.99571715 1.9462596-1.61044833 3.2078234-1.6888182s2.4963188.38712098 3.3921766 1.2788182c.8963023.89474093 1.3657421 2.1309738 1.2892431 3.3951206-.0764991 1.2641468-.691587 2.4347502-1.6892431 3.2148794z" fill="#9d27b0"/><path id="Shape" d="m49.51 8.5c-1.2103704-1.18830844-2.9950052-1.57711776-4.59-1 .5949781.2166841 1.1369966.55757624 1.59 1 .8916972.89585778 1.3571881 2.1306128 1.2788182 3.3921766s-.6931011 2.4292141-1.6888182 3.2078234l-4.31 3.35-4.41 3.43c.3998756.4665058.7610709.9648215 1.08 1.49l6.33-4.92 4.31-3.35c.9957171-.7786093 1.6104483-1.9462596 1.6888182-3.2078234s-.387121-2.49631882-1.2788182-3.3921766z" fill="#6a1b9a"/><path id="Shape" d="m42.25 8.46-2.68 4.71-4 7c-1.156907-.861098-2.4718532-1.4862921-3.87-1.84l1-7.95 1.45-5.27c.3365149-1.2187809 1.1799716-2.23449682 2.316177-2.78920987s2.4558532-.59505828 3.623823-.11079013c1.1698964.48140446 2.0767146 1.44204392 2.4899417 2.63772415.4132271 1.19568024.2930648 2.51124416-.3299417 3.61227585z" fill="#673ab7"/><path id="Shape" d="m40.1 2.21c-1.0214427-.40433011-2.1585573-.40433011-3.18 0 .0599168-.004469.1200832-.004469.18 0 1.1681435.48340128 2.0726543 1.44488328 2.4838918 2.6403412.4112376 1.19545793.2896506 2.50991757-.3338918 3.6096588l-2.68 4.71-3.24 5.68c.8040488.3406838 1.5658172.773583 2.27 1.29l4-7 2.68-4.71c.6113183-1.10102497.722755-2.41087887.3062171-3.5993494-.4165379-1.18847054-1.3213073-2.14216217-2.4862171-2.6206506z" fill="#4527a0"/><path id="Shape" d="m40 29c.0035148 3.8796809-2.0369879 7.4743096-5.37 9.46-1.2422145.7377834-2.6190455 1.2205242-4.05 1.42-.5228085.0804726-1.0510348.120591-1.58.12-3.8796809.0035148-7.4743096-2.0369879-9.46-5.37-.7377834-1.2422145-1.2205242-2.6190455-1.42-4.05-.0804726-.5228085-.120591-1.0510348-.12-1.58-.0035148-3.8796809 2.0369879-7.4743096 5.37-9.46 1.2422145-.7377834 2.6190455-1.2205242 4.05-1.42.5228085-.0804726 1.0510348-.120591 1.58-.12 3.8796809-.0035148 7.4743096 2.0369879 9.46 5.37.7377834 1.2422145 1.2205242 2.6190455 1.42 4.05.0804726.5228085.120591 1.0510348.12 1.58z" fill="#ffdc00"/><circle id="Oval" cx="29" cy="29" fill="#ffeb3a" r="7"/></g><g id="Icons_copy" fill="#000"><path id="Shape" d="m59.17 26.94c-.5955939-.5230293-1.2988436-.9087925-2.06-1.13 1.8435595-1.4901225 2.5074318-4.0039313 1.64-6.21v-.08c-.6020413-1.4167949-1.7811481-2.5085605-3.24-3-.7508677-.2600101-1.5503708-.3488438-2.34-.26.3702234-.6986229.5819116-1.4702605.62-2.26.0978359-1.550271-.4754232-3.067801-1.5738111-4.1661889s-2.6159179-1.67164698-4.1661889-1.5738111c-.7928225.05044282-1.5646349.27583938-2.26.66.0832548-.78962335-.0054438-1.58791121-.26-2.34-.5026232-1.46884159-1.6141739-2.64963647-3.05-3.24-.0260037-.00840911-.0539963-.00840911-.08 0-1.4102434-.60570832-3.0127072-.57657262-4.4.08-.7170971.34825799-1.3487167.85013952-1.85 1.47-.6649963-2.31434972-2.7820061-3.90872538-5.19-3.90872538s-4.5250037 1.59437566-5.19 3.90872538c-1.4841569-1.82566713-3.9752295-2.48779988-6.17-1.64h-.08c-1.4167949.60204131-2.5085605 1.7811481-3 3.24-.2545562.75208879-.3432548 1.55037665-.26 2.34-.6986229-.37022337-1.4702605-.58191156-2.26-.62-1.5679394-.1146095-3.1081842.45849872-4.21984276 1.57015724-1.11165852 1.11165856-1.68476674 2.65190336-1.57015724 4.21984276.05044282.7928225.27583938 1.5646349.66 2.26-.78962925-.0888438-1.58913229-.0000101-2.34.26-1.4588519.4914395-2.63795869 1.5832051-3.24 3-.00840911.0260037-.00840911.0539963 0 .08-.59000211 1.4173806-.5426542 3.0199252.13 4.4.34825799.7170971.85013952 1.3487167 1.47 1.85-2.318107.6582666-3.91762946 2.7752417-3.91762946 5.185s1.59952246 4.5267334 3.91762946 5.185c-1.83292326 1.4838456-2.49601891 3.982584-1.64 6.18-.00180999.026636-.00180999.053364 0 .08.59036353 1.4358261 1.77115841 2.5473768 3.24 3.05.56597468.1957805 1.16113229.2938462 1.76.29h.58c-.38416062.6953651-.60955718 1.4671775-.66 2.26-.09400401 1.4927663.4342008 2.9578398 1.45913942 4.0471923 1.02493858 1.0893525 2.45514028 1.7057646 3.95086058 1.7028077h.42c.7928225-.0504428 1.5646349-.2758394 2.26-.66-.0832548.7896233.0054438 1.5879112.26 2.34.4914395 1.4588519 1.5832051 2.6379587 3 3.24.0260037.0084091.0539963.0084091.08 0 1.4226213.5801259 3.0263808.5181625 4.4-.17.7170971-.348258 1.3487167-.8501395 1.85-1.47.6649963 2.3143497 2.7820061 3.9087254 5.19 3.9087254s4.5250037-1.5943757 5.19-3.9087254c.4782221.6108084 1.0817691 1.1120594 1.77 1.47.7332648.3641616 1.5412907.5524727 2.36.55.6843062-.0031814 1.3622124-.1319836 2-.38h.08c1.4358261-.5903635 2.5473768-1.7711584 3.05-3.24.2545562-.7520888.3432548-1.5503767.26-2.34.6953651.3841606 1.4671775.6095572 2.26.66h.33c1.4957203.0029569 2.925922-.6134552 3.9508606-1.7028077s1.5531434-2.554426 1.4591394-4.0471923c-.0504428-.7928225-.2758394-1.5646349-.66-2.26h.58c.5988677.0038462 1.1940253-.0942195 1.76-.29 1.4688416-.5026232 2.6496365-1.6141739 3.24-3.05.0084091-.0260037.0084091-.0539963 0-.08.6025598-1.4116719.5697819-3.0141488-.09-4.4-.348258-.7170971-.8501395-1.3487167-1.47-1.85 1.8922311-.5533344 3.3336545-2.0921964 3.7622088-4.0165297.4285542-1.9243334-.2236168-3.9294445-1.7022088-5.2334703zm-4.35-8.58c.8973331.3132115 1.6226054.9877148 2 1.86v.07c.3766755.9049351.3457217 1.928201-.0849637 2.8087134s-1.2194479 1.533111-2.1650363 1.7912866l-5.2 1.43h-.07l-6.7 1.84c-.2134094-.8711709-.5219286-1.7162453-.92-2.52l5.62-4.37 4.7-2.65c.8566274-.4952658 1.8872577-.5902885 2.82-.26zm-23.82 22.64c-5.5228475 0-10-4.4771525-10-10s4.4771525-10 10-10 10 4.4771525 10 10-4.4771525 10-10 10zm17.17-30.79c1.491765-.0887079 2.8683859.8014201 3.3996235 2.1982088.5312377 1.3967886.0940622 2.9767539-1.0796235 3.9017912l-9.81 7.62c-.530616-.7321011-1.1410376-1.4028941-1.82-2l3.54-6.22 3.29-4.21c.6043293-.7646527 1.5069683-1.2341706 2.48-1.29zm-11.06-2.83c.2581756-.94558839.9107742-1.73435086 1.7912866-2.16503628.8805124-.43068541 1.9037783-.46163926 2.8087134-.08496372h.07c.9030278.38481847 1.596426 1.14011778 1.9028119 2.07267988s.1960391 1.95192548-.3028119 2.79732012l-6.15 10.8c-.7612152-.469823-1.5730184-.8522427-2.42-1.14l.88-7.06zm-8.67-3.23c.9321706-1.08861013 2.4455505-1.47817549 3.7874817-.97495129 1.3419313.50322421 2.2259964 1.7918315 2.2125183 3.22495129v.44l-.68 5.42-.85 6.86c-.632158-.0936524-1.2710914-.1337948-1.91-.12-.28 0-.56 0-.84 0l-1.87-6.83-.68-5.37c-.1105404-.96096216.1910251-1.92379171.83-2.65zm-10.08 3c.3132115-.89733311.9877148-1.62260541 1.86-2h.07c.9049351-.37667554 1.928201-.34572169 2.8087134.08496372.8805124.43068542 1.533111 1.21944789 1.7912866 2.16503628l1.43 5.2v.07l1.84 6.7c-.8711709.2134094-1.7162453.5219286-2.52.92l-4.34-5.61-2.68-4.68c-.4952658-.85662738-.5902885-1.88725769-.26-2.82zm-7.15 4c.6918595-.6903388 1.6466765-1.050626 2.6221206-.9894217.9754441.0612044 1.8777372.5380162 2.4778794 1.3094217l3.28 4.2c.0199311.0355899.0433818.069091.07.1l4.27 5.5c-.7321011.530616-1.4028941 1.1410376-2 1.82l-6.2-3.49-4.21-3.29c-.7733567-.6016551-1.250535-1.5069063-1.3098677-2.4849395-.0593328-.9780333.3049141-1.9343298.9998677-2.6250605zm-6.08 9.14v-.07c.38481847-.9030278 1.14011778-1.596426 2.07267988-1.9028119s1.95192548-.1960391 2.79732012.3028119l10.8 6.15c-.469823.7612152-.8522427 1.5730184-1.14 2.42l-7.06-.88-5.22-1.42c-.94558839-.2581756-1.73435086-.9107742-2.16503628-1.7912866-.43068541-.8805124-.46163926-1.9037783-.08496372-2.8087134zm-2.13 10.71c-.00000808-1.8793927 1.52061543-3.4044886 3.4-3.41h.44l5.43.68h.06l6.83.85c-.105836.6210867-.1593572 1.2499606-.16 1.88v.84l-6.83 1.87-5.37.68c-.96633786.1112498-1.93418983-.1954832-2.66004984-.8430267-.72586001-.6475436-1.1406278-1.5742529-1.13995016-2.5469733zm4.18 12.64c-.89733311-.3132115-1.62260541-.9877148-2-1.86v-.07c-.37667554-.9049351-.34572169-1.928201.08496372-2.8087134.43068542-.8805124 1.21944789-1.533111 2.16503628-1.7912866l5.2-1.43h.07l6.7-1.84c.2134094.8711709.5219286 1.7162453.92 2.52l-5.62 4.37-4.7 2.65c-.85662738.4952658-1.88725769.5902885-2.82.26zm6.65 8.15c-1.491765.0887079-2.8683859-.8014201-3.3996235-2.1982088-.53123768-1.3967886-.0940622-2.9767539 1.0796235-3.9017912l9.81-7.62c.530616.7321011 1.1410376 1.4028941 1.82 2l-3.54 6.2-3.29 4.21c-.6005117.7721578-1.5037053 1.249248-2.48 1.31zm11.06 2.83c-.2581756.9455884-.9107742 1.7343509-1.7912866 2.1650363s-1.9037783.4616392-2.8087134.0849637h-.07c-.9030278-.3848185-1.596426-1.1401178-1.9028119-2.0726799s-.1960391-1.9519255.3028119-2.7973201l6.15-10.8c.7612152.469823 1.5730184.8522427 2.42 1.14l-.88 7.06zm8.67 3.23c-.9321706 1.0886101-2.4455505 1.4781755-3.7874817.9749513-1.3419313-.5032242-2.2259964-1.7918315-2.2125183-3.2249513 0-.15 0-.3 0-.44l.68-5.43v-.06l.85-6.83c.630962.1075219 1.269943.1610491 1.91.16h.84l1.87 6.83.68 5.37c.1105404.9609622-.1910251 1.9237917-.83 2.65zm10.08-3c-.3132115.8973331-.9877148 1.6226054-1.86 2h-.07c-.9049351.3766755-1.928201.3457217-2.8087134-.0849637s-1.533111-1.2194479-1.7912866-2.1650363l-1.43-5.2s0-.05 0-.07l-1.84-6.7c.8711709-.2134094 1.7162453-.5219286 2.52-.92l4.37 5.62 2.65 4.67c.4952658.8566274.5902885 1.8872577.26 2.82zm7.15-4c-.6880598.6958704-1.643267 1.0604533-2.62 1-.9739565-.0608167-1.8759005-.5336099-2.48-1.3l-7.62-9.81c.7321011-.530616 1.4028941-1.1410376 2-1.82l6.22 3.54 4.21 3.29c.7733567.6016551 1.250535 1.5069063 1.3098677 2.4849395.0593328.9780333-.3049141 1.9343298-.9998677 2.6250605zm6.08-9.09v.07c-.394624.8943498-1.1540947 1.5763337-2.0855953 1.8728071-.9315005.2964735-1.9454431.1789231-2.7844047-.3228071l-10.8-6.15c.469823-.7612152.8522427-1.5730184 1.14-2.42l7.06.88 5.19 1.42c.9455884.2581756 1.7343509.9107742 2.1650363 1.7912866s.4616392 1.9037783.0849637 2.8087134zm-1.27-7.3h-.44l-5.43-.68h-.06l-6.83-.85c.1086609-.6375446.1621921-1.2832655.16-1.93 0-.28 0-.56 0-.84l6.83-1.87 5.37-.68c1.2447792-.1321758 2.4619125.42829 3.1707204 1.460054.7088079 1.0317639.7953313 2.3689435.2253996 3.4834494-.5699316 1.114506-1.704687 1.8271528-2.95612 1.8564966z"/><path id="Shape" d="m31 23c-4.418278 0-8 3.581722-8 8s3.581722 8 8 8 8-3.581722 8-8c0-2.1217319-.8428547-4.1565632-2.3431458-5.6568542-1.500291-1.5002911-3.5351223-2.3431458-5.6568542-2.3431458zm0 14c-3.3137085 0-6-2.6862915-6-6s2.6862915-6 6-6 6 2.6862915 6 6-2.6862915 6-6 6z"/></g></g></g></svg>