<svg height="512" viewBox="0 0 60 60" width="512" xmlns="http://www.w3.org/2000/svg"><g id="Page-1" fill="none" fill-rule="evenodd"><g id="075---Flower" fill-rule="nonzero" transform="translate(0 -1)"><g id="Icons" transform="translate(1 1)"><path id="Shape" d="m58 30c0 1.37-2.09 2.57-2.27 3.88s1.47 3.09 1.1 4.37-2.71 1.86-3.26 3.08.55 3.38-.17 4.5-3.12 1-4 2-.4 3.42-1.4 4.3-3.27.08-4.39.81-1.33 3.14-2.55 3.7-3.15-.86-4.44-.48-2.16 2.64-3.49 2.84-2.78-1.74-4.13-1.74-2.83 1.91-4.13 1.74-2.21-2.45-3.48-2.83-3.24 1-4.44.48-1.43-3-2.55-3.7-3.4.05-4.4-.82-.54-3.26-1.42-4.28-3.27-.88-4-2 .39-3.27-.17-4.5-2.88-1.78-3.26-3.08 1.29-3 1.1-4.37-2.25-2.53-2.25-3.9 2.09-2.57 2.27-3.88-1.47-3.12-1.1-4.37 2.71-1.86 3.26-3.08-.55-3.38.17-4.5 3.12-1 4-2 .4-3.42 1.4-4.3 3.27-.08 4.39-.81 1.34-3.14 2.61-3.7 3.15.86 4.44.48 2.1-2.64 3.43-2.84 2.78 1.74 4.13 1.74 2.83-1.91 4.13-1.74 2.21 2.45 3.48 2.83 3.24-1 4.44-.48 1.43 3 2.55 3.7 3.4-.05 4.4.82.54 3.26 1.42 4.28 3.27.88 4 2-.39 3.27.17 4.5 2.88 1.78 3.26 3.08-1.29 3-1.1 4.37 2.25 2.53 2.25 3.9z" fill="#e91e63"/><path id="Shape" d="m33.61 3.84c.8135749.09494978 1.6378135-.0257546 2.39-.35-1-.74-1.76-2.32-2.87-2.49-.6790981.00959067-1.3348462.24932655-1.86.68.78.76 1.47 1.9 2.34 2.16z" fill="#ad1457"/><path id="Shape" d="m58 30c0-1.37-2.09-2.57-2.27-3.88s1.47-3.09 1.1-4.37-2.71-1.86-3.26-3.08.55-3.38-.17-4.5-3.12-1-4-2-.4-3.42-1.4-4.3-3.27-.08-4.39-.81-1.33-3.14-2.55-3.7c-.8714992-.19518125-1.7832497-.09309336-2.59.29.88.85 1.16 2.78 2.14 3.41s3.39-.06 4.39.81.54 3.26 1.42 4.28 3.27.88 4 2-.39 3.27.17 4.5 2.88 1.78 3.26 3.08-1.29 3-1.1 4.37 2.25 2.53 2.25 3.9-2.09 2.57-2.27 3.88 1.47 3.09 1.1 4.37-2.71 1.86-3.26 3.08.55 3.38-.17 4.5-3.12 1-4 2-.4 3.42-1.4 4.3-3.27.08-4.39.81-1.27 2.56-2.14 3.41c.8067503.3830934 1.7185008.4851813 2.59.29 1.22-.56 1.43-3 2.55-3.7s3.39.06 4.39-.81.54-3.26 1.42-4.28 3.27-.88 4-2-.39-3.27.17-4.5 2.88-1.78 3.26-3.08-1.29-3-1.1-4.37 2.25-2.53 2.25-3.9z" fill="#ad1457"/><path id="Shape" d="m33.61 56.16c-.87.26-1.56 1.4-2.34 2.15.5251538.4306735 1.1809019.6704093 1.86.68 1.11-.16 1.91-1.74 2.87-2.48-.7521865-.3242454-1.5764251-.4449498-2.39-.35z" fill="#ad1457"/><g fill="#ffeb3a"><path id="Shape" d="m37.48 18.39c-.6270221 1.7390828-1.550689 3.3563458-2.73 4.78-.2708327.0706457-.5351287.1643203-.79.28 0-.15 0-.3 0-.45-.0173873-2.5712579-1.9821331-4.7101165-4.5426771-4.9452421-2.5605439-.2351256-4.881956 1.5101504-5.3673229 4.0352421-.9683213-1.4248472-2.1563995-2.6871802-3.52-3.74-1.1311671-3.3119547-1.649628-6.8022476-1.53-10.3.3326529-.17097197.7081829-.24051457 1.08-.2.2654927.03193335.5325972.04862738.8.05.554752.00068403 1.1068374-.07674259 1.64-.23.7771659-.24091782 1.4980702-.63537486 2.12-1.16.5557141-.47259683 1.3329416-.58529481 2-.29 1.5110254.69287092 3.2489746.69287092 4.76 0 .6670584-.29529481 1.4442859-.18259683 2 .29.6219298.52462514 1.3428341.91908218 2.12 1.16.5331626.15325741 1.085248.23068403 1.64.23.2674028-.00137262.5345073-.01806665.8-.05.3947871-.0464482.7941045.03411584 1.14.23.0912671 3.5065737-.4577137 7.0003959-1.62 10.31z"/><path id="Shape" d="m24.09 22.1c-.0606277.2961436-.0907848.5977151-.09.9v.45c-.6284313-.2865236-1.3094086-.4397435-2-.45-2.2710036.0079372-4.2514176 1.5453962-4.8220906 3.7435438-.5706729 2.1981476.4117495 4.5048045 2.3920906 5.6164562-1.5038143.4631154-2.93463 1.1364404-4.25 2-3.0986141.0670673-6.18697764-.3789546-9.14-1.32-.14124165-.7259219-.41953995-1.4182738-.82-2.04-.37926741-.6127253-.37926741-1.3872747 0-2 .4466892-.7051607.74287938-1.4950011.87-2.32.10892586-.8164606.05109298-1.6465325-.17-2.44-.19760897-.7017094.01484824-1.4549667.55-1.95.62404644-.5569183 1.12475894-1.2381598 1.47-2 .32262783-.7211507.49610394-1.5000924.51-2.29.00716415-.7310283.42467657-1.3959555 1.08-1.72.7636698-.3466149 1.4452867-.8510114 2-1.48.200719-.2499274.3781266-.5177124.53-.8 3.0180745.9797305 5.8481836 2.4641008 8.37 4.39 1.3636005 1.0528198 2.5516787 2.3151528 3.52 3.74z"/><path id="Shape" d="m29 44.38c-.9812432 3.2235332-2.5213313 6.2495525-4.55 8.94-.5619355-.4485705-1.2030179-.7877676-1.89-1-.5331626-.1532574-1.085248-.230684-1.64-.23-.2664486-.0152506-.5335514-.0152506-.8 0-.7102438.0809007-1.4057892-.2436872-1.8-.84-.4459004-.6873731-1.0278581-1.2761373-1.71-1.73-.6853519-.440669-1.4550702-.7335706-2.26-.86-.7132285-.1077723-1.302921-.6121145-1.52-1.3-.2400478-.7946766-.6379902-1.5327407-1.17-2.17-.5559334-.6276577-1.2372463-1.1318292-2-1.48-.65532343-.3240445-1.07283585-.9889717-1.08-1.72-.00405163-.3351614-.03414221-.6695012-.09-1 1.8785128-2.5969271 4.1846738-4.8557476 6.82-6.68 1.31537-.8635596 2.7461857-1.5368846 4.25-2 .4765774.2655794.9934087.4513684 1.53.55-.7158483.8889396-1.1010891 1.9987159-1.09 3.14 0 1.3260824.5267842 2.597852 1.4644661 3.5355339s2.2094515 1.4644661 3.5355339 1.4644661c1.2298536.0046396 2.415921-.4562119 3.32-1.29.0020073 1.5811876.2310101 3.1538976.68 4.67z"/><path id="Shape" d="m49.48 41.18c-.0473492.2875656-.0707629.5785633-.07.87-.0071641.7310283-.4246766 1.3959555-1.08 1.72-.7636698.3466149-1.4452867.8510114-2 1.48-.5347949.6316032-.9331425 1.3670141-1.17 2.16-.2049923.6858611-.7835368 1.1945143-1.49 1.31-.8152565.1226721-1.5955294.4157003-2.29.86-.6821419.4538627-1.2640996 1.0426269-1.71 1.73-.3942108.5963128-1.0897562.9209007-1.8.84-.2664486-.0152506-.5335514-.0152506-.8 0-.554752-.000684-1.1068374.0767426-1.64.23-.7043043.2071079-1.3627068.5464906-1.94 1-2.0388085-2.7076417-3.5825917-5.7545822-4.56-9-.4388411-1.5175807-.6577367-3.0902617-.65-4.67.2644282-.2105441.5057783-.4485422.72-.71 1.2912912 1.7217216 3.5394281 2.4239867 5.5811388 1.7434165s3.4188612-2.5912645 3.4188612-4.7434165c-.0014234-.9488482-.2794317-1.8767009-.8-2.67 1.7360768.6956062 3.580668 1.0814473 5.45 1.14 2.6411239 1.832661 4.950816 4.1017728 6.83 6.71z"/><path id="Shape" d="m52.64 31c-.4177157.6585669-.7030374 1.3922513-.84 2.16-2.9518338.9453192-6.041477 1.3881456-9.14 1.31-1.869332-.0585527-3.7139232-.4443938-5.45-1.14-.0884913-.1478734-.1888196-.2883331-.3-.42 2.5250917-.4853669 4.2703677-2.806779 4.0352421-5.3673229-.2351256-2.560544-2.3739842-4.5252898-4.9452421-4.5426771-.4224046.0003587-.8428414.0575381-1.25.17 1.179311-1.4236542 2.1029779-3.0409172 2.73-4.78 2.5189888-1.9245791 5.3455828-3.4088791 8.36-4.39.1576748.2597306.3348511.5071089.53.74.5559334.6276577 1.2372463 1.1318292 2 1.48.6593223.3448073 1.0633551 1.036325 1.04 1.78.00697.8164721.1805117 1.6229306.51 2.37.3452411.7618402.8459536 1.4430817 1.47 2 .5351518.4950333.747609 1.2482906.55 1.95-.4681372 1.6130915-.2127132 3.3499747.7 4.76.3471545.5929233.3471545 1.3270767 0 1.92z"/></g><path id="Shape" d="m36.9 32.91c.1111804.1316669.2115087.2721266.3.42.5205683.7932991.7985766 1.7211518.8 2.67 0 2.152152-1.3771505 4.0628463-3.4188612 4.7434165s-4.2898476-.0216949-5.5811388-1.7434165c-.2000343.2698757-.4279604.517913-.68.74-.9086401.8228849-2.0941933 1.2728237-3.32 1.26-1.3260824 0-2.597852-.5267842-3.5355339-1.4644661s-1.4644661-2.2094515-1.4644661-3.5355339c.0032451-1.1253584.3914056-2.2157368 1.1-3.09-1.9379808-.2970387-3.5235206-1.6993323-4.0551581-3.5864897-.5316374-1.8871574.0887454-3.910889 1.5866838-5.1758719 1.4979384-1.264983 3.5969762-1.537755 5.3684743-.6976384 0-.15 0-.3 0-.45-.0007848-.3022849.0293723-.6038564.09-.9.4848351-2.5233964 2.8033943-4.2684869 5.3624142-4.0360835 2.55902.2324034 4.5252699 2.366629 4.5475858 4.9360835v.45c.2548713-.1156797.5191673-.2093543.79-.28.3942409-.1089652.8009961-.1661127 1.21-.17 2.5694545.0223159 4.7036801 1.9885658 4.9360835 4.5475858.2324034 2.5590199-1.5126871 4.8775791-4.0360835 5.3624142z" fill="#ffdc00"/></g><g id="Icons_copy" fill="#000"><path id="Shape" d="m57.72 27c.0518581-.5486629.2188233-1.0802256.49-1.56.5567562-.8942261.7633262-1.9626913.58-3-.4069427-.9624419-1.1496779-1.7442685-2.09-2.2-.4728016-.2433175-.888618-.5841507-1.22-1-.1183564-.5335147-.1183564-1.0864853 0-1.62.2679243-1.0013498.1686012-2.0655259-.28-3-.6586204-.802574-1.5859446-1.3390719-2.61-1.51-.5248617-.101663-1.0223652-.3129316-1.46-.62-.2476088-.4843322-.3874763-1.0165108-.41-1.56-.0200088-1.0426648-.4139323-2.04344348-1.11-2.82-.8413104-.57992344-1.8655413-.8324248-2.88-.71h-.05c-.5340765.04312939-1.0713747-.02148242-1.58-.19-.3634339-.3945526-.6394552-.86140346-.81-1.37-.3099831-.99828594-.9706326-1.8507369-1.86-2.4-.9855237-.31837415-2.0539305-.26139245-3 .16-.5012239.20221623-1.0400681.29429721-1.58.27-.4502853-.27715402-.841154-.64083181-1.15-1.07-.5673486-.87254342-1.429996-1.5115415-2.43-1.8-1.0299906-.01859917-2.0318306.33666323-2.82 1-.4227716.35069447-.9179605.60341155-1.45.74-.5320395-.13658845-1.0272284-.38930553-1.45-.74-.7881694-.66333677-1.7900094-1.01859917-2.82-1-1.0132044.2773-1.8910528.91347352-2.47 1.79-.308846.42916819-.6997147.79284598-1.15 1.07-.5405719.01988787-1.0791821-.07556204-1.58-.28-.9486188-.41258786-2.0149565-.46590474-3-.15-.8863323.55263121-1.545998 1.40381278-1.86 2.4-.1705448.50859654-.4465661.9754474-.81 1.37-.5067956.17656238-1.0457938.24137863-1.58.19-1.0305071-.1274577-2.0721476.12495348-2.93.71-.70211111.78076474-1.09658923 1.79006013-1.11 2.84-.02619155.5417409-.16228272 1.0724965-.4 1.56-.44039983.3020553-.93682532.5128661-1.46.62-1.02797565.1677657-1.95949604.7046344-2.62 1.51-.44860122.9344741-.54792432 1.9986502-.28 3 .11835644.5335147.11835644 1.0864853 0 1.62-.33138202.4158493-.74719845.7566825-1.22 1-.94032207.4557315-1.6830573 1.2375581-2.09 2.2-.17858257 1.0372654.02766169 2.104046.58 3 .28385347.473576.46446305 1.0017738.53 1.55-.19965176.4898606-.49937997.932641-.88 1.3-.773477.7044325-1.26995922 1.6619339-1.4 2.7.12545161 1.0451972.62230659 2.0105155 1.4 2.72.37833838.3615231.67792981.7972925.88 1.28-.05185811.5486629-.21882331 1.0802256-.49 1.56-.55233831.895954-.75858258 1.9627346-.58 3 .4069427.9624419 1.14967793 1.7442685 2.09 2.2.47280155.2433175.88861798.5841507 1.22 1 .11835644.5335147.11835644 1.0864853 0 1.62-.26792432 1.0013498-.16860122 2.0655259.28 3 .66050396.8053656 1.59202435 1.3422343 2.62 1.51.52317468.1071339 1.01960017.3179447 1.46.62.23771728.4875035.37380845 1.0182591.4 1.56.0200088 1.0426648.41393232 2.0434435 1.11 2.82.8574725.585901 1.8994396.8383913 2.93.71.5341985-.0507467 1.0730621.0140533 1.58.19.3634339.3945526.6394552.8614035.81 1.37.3099831.9982859.9706326 1.8507369 1.86 2.4.9855237.3183741 2.0539305.2613924 3-.16.5012239-.2022162 1.0400681-.2942972 1.58-.27.4502853.277154.841154.6408318 1.15 1.07.5673486.8725434 1.429996 1.5115415 2.43 1.8h.33c.9080547-.0903862 1.771663-.4372168 2.49-1 .4227716-.3506945.9179605-.6034115 1.45-.74.5303289.1306428 1.025384.3764632 1.45.72.7904262.6593869 1.7907451 1.0141099 2.82 1 1.0132044-.2773 1.8910528-.9134735 2.47-1.79.308846-.4291682.6997147-.792846 1.15-1.07.5408728-.0243549 1.0804346.0712637 1.58.28.9486188.4125879 2.0149565.4659047 3 .15.8863323-.5526312 1.545998-1.4038128 1.86-2.4.1705448-.5085965.4465661-.9754474.81-1.37.507555-.1732579 1.0458395-.2379883 1.58-.19 1.0300212.119272 2.0688324-.1324536 2.93-.71.6976159-.7756002 1.0917759-1.7769796 1.11-2.82.0261915-.5417409.1622827-1.0724965.4-1.56.4403998-.3020553.9368253-.5128661 1.46-.62 1.0279756-.1677657 1.959496-.7046344 2.62-1.51.4486012-.9344741.5479243-1.9986502.28-3-.1183564-.5335147-.1183564-1.0864853 0-1.62.331382-.4158493.7471984-.7566825 1.22-1 .9403221-.4557315 1.6830573-1.2375581 2.09-2.2.1785826-1.0372654-.0276617-2.104046-.58-3-.2838535-.473576-.4644631-1.0017738-.53-1.55.1996518-.4898606.49938-.932641.88-1.3.773477-.7044325 1.2699592-1.6619339 1.4-2.7-.1254516-1.0451972-.6223066-2.0105155-1.4-2.72-.3783384-.3615231-.6779298-.7972925-.88-1.28zm-.63 5.43c-.6622217.632638-1.1304991 1.44085-1.35 2.33-.0369563.9332403.1882154 1.858176.65 2.67.2869768.4757627.4518696 1.0150996.48 1.57-.09.33-.74.75-1.26 1.08-.8317815.4192411-1.525885 1.0682279-2 1.87-.2991675.880003-.3408 1.8271413-.12 2.73.1259447.54279.1259447 1.10721 0 1.65-.18.28-.91.49-1.5.66-.906144.1721585-1.7431275.6028056-2.41 1.24-.5298978.7595405-.8317448 1.6546731-.87 2.58-.0185665.5618512-.1729701 1.1108416-.45 1.6-.5118323.1989932-1.0642493.2710476-1.61.21-.9207297-.0949064-1.8490716.0824173-2.67.51-.7197266.5794053-1.2577524 1.3534681-1.55 2.23-.25.56-.57 1.27-.87 1.4-.5350705.0355935-1.0707072-.0605464-1.56-.28-.8587338-.3480833-1.7994687-.4418097-2.71-.27-.851767.3428511-1.5850427.9266914-2.11 1.68-.4.47-.91 1.06-1.24 1.11s-.93-.37-1.44-.7c-.7331824-.5701346-1.6149234-.9172767-2.54-1-.9250766.0827233-1.8068176.4298654-2.54 1-.51.33-1.14.76-1.44.7s-.84-.64-1.24-1.11c-.5249573-.7533086-1.258233-1.3371489-2.11-1.68-.2494271-.0762955-.5091873-.1134041-.77-.11-.6613867.0342567-1.3145653.162199-1.94.38-.5010104.2140968-1.0474623.3000169-1.59.25-.3-.14-.62-.84-.87-1.4-.2673767-.8657926-.7733933-1.6386809-1.46-2.23-.8099475-.4177469-1.7226144-.594728-2.63-.51-.5457759.0643291-1.0989851-.0078286-1.61-.21-.2770299-.4891584-.4314335-1.0381488-.45-1.6-.0382552-.9253269-.3401022-1.8204595-.87-2.58-.697791-.6362598-1.56710878-1.0535323-2.5-1.2-.54563756-.0967084-1.06006574-.3230568-1.5-.66-.12607792-.5461516-.12607792-1.1138484 0-1.66.22079998-.9028587.17916753-1.849997-.12-2.73-.46124397-.7917585-1.13734568-1.4366555-1.95-1.86-.52-.33-1.17-.75-1.26-1.08.02975595-.5514757.19459018-1.087187.48-1.56.46178464-.811824.68695627-1.7367597.65-2.67-.21950093-.88915-.68777828-1.697362-1.35-2.33-.38-.51-.89-1.1-.89-1.45s.51-.94.91-1.41c.66222172-.632638 1.13049907-1.44085 1.35-2.33.03695627-.9332403-.18821536-1.858176-.65-2.67-.29014244-.4816555-.45515361-1.0282551-.48-1.59.09-.33.74-.75 1.26-1.08.83374863-.4164171 1.52857064-1.0660757 2-1.87.2997202-.8798991.34135964-1.8271963.12-2.73-.12594473-.54279-.12594473-1.10721 0-1.65.18-.28.91-.49 1.5-.66.90614404-.1721585 1.74312753-.6028056 2.41-1.24.5266281-.7618966.8312847-1.6550944.88-2.58.0110142-.5616707.162266-1.1116773.44-1.6.24-.21 1-.18 1.61-.21.9108489.09119241 1.8290066-.0751154 2.65-.48.7013135-.5860846 1.2215385-1.35948583 1.5-2.23.25-.56.57-1.27.87-1.4.5556163-.05168887 1.1154143.03416973 1.63.25.8587338.34808334 1.7994687.4418097 2.71.27.851767-.34285111 1.5850427-.92669143 2.11-1.68.4-.47.91-1.06 1.24-1.11s.93.37 1.44.7c.7331824.57013459 1.6149234.91727669 2.54 1 .9250766-.08272331 1.8068176-.42986541 2.54-1 .51-.33 1.14-.76 1.44-.7s.84.64 1.24 1.11c.5249573.75330857 1.258233 1.33714889 2.11 1.68.8847353.15582121 1.7953794.06233304 2.63-.27.501127-.21369092 1.0474759-.29959484 1.59-.25.3.14.62.84.87 1.4.303221.88144031.8555204 1.65604897 1.59 2.23.8235546.41997294 1.7496338.59686448 2.67.51.5457578-.06185263 1.0983673.01022687 1.61.21.2770299.4891584.4314335 1.0381488.45 1.6.0382552.9253269.3401022 1.8204595.87 2.58.6717691.6226408 1.5082866 1.0391641 2.41 1.2.5456376.0967084 1.0600657.3230568 1.5.66.1311889.5455575.1311889 1.1144425 0 1.66-.2208.9028587-.1791675 1.849997.12 2.73.4777684.7963259 1.1711552 1.4411756 2 1.86.52.33 1.17.75 1.26 1.08-.0297559.5514757-.1945902 1.087187-.48 1.56-.4617846.811824-.6869563 1.7367597-.65 2.67.2195009.88915.6877783 1.697362 1.35 2.33.4.47.91 1.06.91 1.41s-.58.98-.98 1.45z"/><path id="Shape" d="m53.76 27.54c-.0855933-.6699552-.034567-1.3503068.15-2 .2994171-1.0802683-.0284219-2.237347-.85-3-.5226241-.4483924-.9421968-1.0044115-1.23-1.63-.2732406-.6315854-.4160969-1.3118538-.42-2-.0310026-1.0985545-.6602011-2.0922277-1.64-2.59-.6221513-.2890742-1.1772729-.704564-1.63-1.22-.1653724-.1927339-.3126599-.4002754-.44-.62-.243054-.4032548-.7344851-.5823356-1.18-.43-2.1895688.7264578-4.2922926 1.6923022-6.27 2.88.5943309-2.5864005.8630803-5.2369418.8-7.89-.0112087-.34997921-.2046581-.6686017-.51-.84-.5308204-.3010083-1.1442395-.42369213-1.75-.35-.6701844.0753284-1.3485491.02445105-2-.15-.6479222-.21163721-1.2465178-.55174834-1.76-1-.8404687-.69291264-1.9959545-.86238389-3-.44-1.2677285.59151721-2.7322715.59151721-4 0-1.0013028-.43216403-2.1604044-.26602613-3 .43-.516434.44941603-1.1185362.78958676-1.77 1-.6699598.18591343-1.3701751.23689998-2.06.15-.5643888-.06694836-1.1358598.03758901-1.64.3-.3307462.16172276-.5458778.49210343-.56.86-.0623272 2.6524876.2030125 5.3025261.79 7.89-1.9762258-1.1931229-4.0791887-2.1624312-6.27-2.89-.447888-.1505321-.9400154.032973-1.18.44-.1336072.2324404-.2911286.4502891-.47.65-.4558472.518869-1.0142486.93767-1.64 1.23-.98600309.5011576-1.61626609 1.5041981-1.64 2.61.0048744.6890548-.13835796 1.3711137-.42 2-.28974373.6357146-.7126074 1.2018063-1.24 1.66-.79225234.7510814-1.11396489 1.8732454-.84 2.93.18537368.6666381.23636203 1.3634788.15 2.05-.10310338.6910919-.35193582 1.3523727-.73 1.94-.58014936.9339027-.58014936 2.1160973 0 3.05.33632357.5283607.57038365 1.115207.69 1.73.06406658.3661823.32597271.666604.68.78 2.13672362.6689445 4.3395345 1.1048127 6.57 1.3-1.7707052 1.5264576-3.3640587 3.2472795-4.75 5.13-.1632425.2210354-.22833907.499504-.18.77.04162046.2681068.06500747.5387279.07.81.03100259 1.0985545.6602011 2.0922277 1.64 2.59.6257514.29233 1.1841528.711131 1.64 1.23.4506974.5306121.790701 1.1460186 1 1.81.3294623 1.0540113 1.2289493 1.8294311 2.32 2 .667539.0978983 1.3056986.3401942 1.87.71.5717451.3751793 1.058814.8656543 1.43 1.44.597898.9157954 1.6643228 1.4121677 2.75 1.28.6701844-.0753284 1.3485491-.024451 2 .15.5662409.1744956 1.0951922.4525341 1.56.82.1745498.1354677.3890506.2093122.61.21h.14c.2630733-.0371621.5005439-.1774857.66-.39 1.5131789-2.0253178 2.7850967-4.2201311 3.79-6.54.9791619 2.3423035 2.2311417 4.5609593 3.73 6.61.1594561.2125143.3969267.3528379.66.39h.14c.2209494-.0006878.4354502-.0745323.61-.21.4779323-.3828308 1.0243034-.6712876 1.61-.85.6507901-.1783075 1.3298938-.2292402 2-.15 1.0815065.1233939 2.1406075-.3713686 2.74-1.28.3920778-.5953322.9069206-1.0999464 1.51-1.48.5824696-.3700227 1.2369257-.6120352 1.92-.71 1.0740926-.1835512 1.952618-.9575824 2.27-2 .209299-.6639814.5493026-1.2793879 1-1.81.4558472-.518869 1.0142486-.93767 1.64-1.23.9891264-.5028381 1.6199262-1.5105793 1.64-2.62-.0012099-.2346677.0188724-.4689613.06-.7.0455004-.2672593-.0194607-.5415395-.18-.76-1.3850164-1.9015742-2.9782407-3.6423813-4.75-5.19 2.2263308-.1895457 4.4257198-.6186948 6.56-1.28.3607321-.1119005.6276426-.4174937.69-.79.1146105-.6427781.3522972-1.2573681.7-1.81.5642477-.9204061.5642477-2.0795939 0-3-.404585-.594486-.6742213-1.2702832-.79-1.98zm-16 5.39c-.3427734.0648077-.6269997.3035578-.75.63-.1346302.3359191-.0772633.718365.15 1 .5466584.6956006.8426215 1.555303.84 2.44-.0085619 1.7180477-1.1132802 3.2387312-2.7445379 3.7779524-1.6312577.5392213-3.4246491-.0234758-4.4554621-1.3979524-.1888544-.2518058-.4852427-.4-.8-.4s-.6111456.1481942-.8.4c-1.030813 1.3744766-2.8242044 1.9371737-4.4554621 1.3979524-1.6312577-.5392212-2.735976-2.0599047-2.7445379-3.7779524.0019227-.8997967.312555-1.771685.88-2.47.2272633-.281635.2846302-.6640809.15-1-.1230003-.3264422-.4072266-.5651923-.75-.63-1.9603487-.4397094-3.290384-2.2653092-3.1080358-4.2660742.1823482-2.0007649 1.8204963-3.5558467 3.8280358-3.6339258.5630524-.0000045 1.1193246.1228532 1.63.36.3240903.1474133.7021168.1113914.9925334-.0945779.2904167-.2059692.4494173-.5508176.4174666-.9054221 0-.07 0-.14 0-.21-.0183525-.0485248-.0317539-.0987802-.04-.15 0-2.209139 1.790861-4 4-4s4 1.790861 4 4c.0048817.0498808.0048817.1001192 0 .15v.21c-.0319507.3546045.1270499.6994529.4174666.9054221.2904166.2059693.6684431.2419912.9925334.0945779.4984259-.2315369 1.0404504-.3542594 1.59-.36 2.0595006.0126917 3.7727356 1.5871312 3.9589644 3.638234.1862287 2.0511028-1.2154275 3.9083571-3.2389644 4.291766zm-13.95-23.3c.9097863-.27686849 1.7536175-.73621208 2.48-1.35.2598756-.21491741.6157323-.27231367.93-.15 1.7599078.80053642 3.7800922.80053642 5.54 0 .3337696-.15141609.7253448-.09267981 1 .15.724293.60903268 1.5645544 1.06488301 2.47 1.34.9000618.25377281 1.8411642.3285174 2.77.22.0419758 3.1144481-.4518861 6.2129243-1.46 9.16-.4383333 1.2166977-1.0297526 2.3726537-1.76 3.44-.6295743-2.346649-2.6122136-4.0819787-5.0215746-4.3951956s-4.7697881.8575141-5.9784254 2.9651956c-.7106984-.8314519-1.4974432-1.5947618-2.35-2.28-.9616671-2.8612418-1.4448183-5.8615089-1.43-8.88.942124.10662981 1.8959501.03195303 2.81-.22zm-16.6 21.85c-.19697416-.3042342-.19697416-.6957658 0-1 .51922013-.8197995.859949-1.7397675 1-2.7.11335311-.9314632.04199301-1.8761349-.21-2.78-.12169592-.3591832-.01052072-.7562375.28-1 .71848836-.6309267 1.30332492-1.3993747 1.72-2.26.3881724-.8687858.5924516-1.8084699.6-2.76-.0058842-.3601221.1966964-.6912634.52-.85.8692808-.4071916 1.6428115-.9933029 2.27-1.72l.21-.26c2.6464863.9423243 5.1296983 2.291896 7.36 4 1.0911667.8493943 2.0632039 1.8416122 2.89 2.95-2.509589-.3555442-4.9718923.9042619-6.1518415 3.1475114s-.8229855 4.9859901.8918415 6.8524886c-.8943095.3725195-1.7599822.8103694-2.59 1.31-2.7075438.0381127-5.4051125-.336175-8-1.11-.16938984-.6432617-.43577857-1.2569674-.79-1.82zm17.96 21.52c-.4296813-.2446658-.8859933-.4392694-1.36-.58-.9110324-.2676055-1.8653333-.3559038-2.81-.26-.3378517.0316669-.6665451-.1212137-.86-.4-.5257858-.7940536-1.2059464-1.4742142-2-2-.80757-.5071973-1.7086805-.847239-2.65-1-.3387048-.049829-.6207829-.2855381-.73-.61-.5425203-1.8759209-1.8697611-3.425584-3.64-4.25-.3233036-.1587366-.5258842-.4898779-.52-.85 0-.19 0-.42 0-.66 1.7539262-2.3724662 3.8896409-4.4372156 6.32-6.11 1.1258983-.7590385 2.3462514-1.3675341 3.63-1.81h.07c-.3968145.7850488-.6088847 1.6504321-.62 2.53 0 3.3137085 2.6862915 6 6 6 .8320157-.0020673 1.6538827-.1828098 2.41-.53.0973405.972179.271213 1.9351655.52 2.88-.8441153 2.7315147-2.1129805 5.3131154-3.76 7.65zm24.27-10.5c-.0099609.1898694-.0099609.3801306 0 .57.0058842.3601221-.1966964.6912634-.52.85-.866538.4117197-1.6391943.9971685-2.27 1.72-.6283526.7399656-1.0980542 1.6010852-1.38 2.53-.0903732.3211151-.3602269.5596814-.69.61-.9533783.1424691-1.8663267.4831215-2.68 1-.7925121.5276697-1.4723303 1.2074879-2 2-.1877983.2809492-.5132192.4379169-.85.41-.9513166-.1153-1.9159885-.0439687-2.84.21-.4948109.1403564-.9689121.345464-1.41.61-1.7024662-2.3966932-3.0028524-5.0548854-3.85-7.87-.3141199-1.1059815-.5085679-2.2424967-.58-3.39 1.0364349.8103886 2.3143531 1.2504431 3.63 1.25 3.3137085 0 6-2.6862915 6-6-.0014137-.3627229-.0382553-.7244404-.11-1.08 1.1211287.280408 2.2661935.4545114 3.42.52 2.3427129 1.6732304 4.4107871 3.7008203 6.13 6.01zm3.35-11c-.3696329.5897915-.6525284 1.2296741-.84 1.9-2.6762866.8083691-5.4654335 1.1798051-8.26 1.1-1.1344417-.048307-2.260647-.2158971-3.36-.5 2.0564094-1.3944528 3.0406152-3.9121098 2.4751255-6.3315188-.5654898-2.4194089-2.5636743-4.2399904-5.0251255-4.5784812.5960277-.9521565 1.1047644-1.9562422 1.52-3 2.1717232-1.6374958 4.5835379-2.9294189 7.15-3.83l.16.2c.6339163.726282 1.4098578 1.3150447 2.28 1.73.3233036.1587366.5258842.4898779.52.85.0138639 1.919447.8515344 3.7404698 2.3 5 .261732.2448998.3723708.6111525.29.96-.5347189 1.8754776-.2359436 3.8903892.82 5.53.1675295.2940523.1559388.6572286-.03.94z"/></g></g></g></svg>